<svg xmlns="http://www.w3.org/2000/svg" version="1.1" xmlns:xlink="http://www.w3.org/1999/xlink" xmlns:svgjs="http://svgjs.dev/svgjs" width="1000" height="186" viewBox="0 0 1000 186"><g transform="matrix(1,0,0,1,-0.6060606060606233,0.09108149120285702)"><svg viewBox="0 0 396 74" data-background-color="#61777f" preserveAspectRatio="xMidYMid meet" height="186" width="1000" xmlns="http://www.w3.org/2000/svg" xmlns:xlink="http://www.w3.org/1999/xlink"><g id="tight-bounds" transform="matrix(1,0,0,1,0.2400000000000091,-0.03623672230651209)"><svg viewBox="0 0 395.52 74.07247344461305" height="74.07247344461305" width="395.52"><g><svg viewBox="0 0 395.52 74.07247344461305" height="74.07247344461305" width="395.52"><g><svg viewBox="0 0 395.52 74.07247344461305" height="74.07247344461305" width="395.52"><g id="textblocktransform"><svg viewBox="0 0 395.52 74.07247344461305" height="74.07247344461305" width="395.52" id="textblock"><g><svg viewBox="0 0 395.52 74.07247344461305" height="74.07247344461305" width="395.52"><g transform="matrix(1,0,0,1,0,0)"><svg width="395.52" viewBox="3.25 -35.4 193.3 36.16" height="74.07247344461305" data-palette-color="#ffffff"><g class="wordmark-text-0" data-fill-palette-color="primary" id="text-0"><path d="M10.25-13.99L10.25 0 3.25 0 3.25-35.01 10.25-35.01 10.25-21 24.24-21 24.24-35.01 31.25-35.01 31.25 0 24.24 0 24.24-13.99 10.25-13.99ZM44.33-13.99L58.35-13.99 58.35-21Q58.35-22.44 57.8-23.72 57.25-25 56.3-25.95 55.34-26.9 54.06-27.45 52.78-28 51.34-28L51.34-28Q49.9-28 48.62-27.45 47.34-26.9 46.38-25.95 45.43-25 44.88-23.72 44.33-22.44 44.33-21L44.33-21 44.33-13.99ZM65.35-21L65.35 0 58.35 0 58.35-7.01 44.33-7.01 44.33 0 37.35 0 37.35-21Q37.35-23.9 38.45-26.45 39.55-29 41.44-30.91 43.33-32.81 45.88-33.91 48.44-35.01 51.34-35.01L51.34-35.01Q54.25-35.01 56.8-33.91 59.35-32.81 61.25-30.91 63.16-29 64.26-26.45 65.35-23.9 65.35-21L65.35-21ZM99.29-17.36L99.29-3.54Q96.85-1.46 93.84-0.35 90.84 0.76 87.59 0.76L87.59 0.76Q85.1 0.76 82.8 0.11 80.49-0.54 78.49-1.72 76.48-2.91 74.82-4.55 73.16-6.2 71.99-8.22 70.82-10.23 70.17-12.55 69.53-14.87 69.53-17.36L69.53-17.36Q69.53-19.85 70.17-22.14 70.82-24.44 71.99-26.45 73.16-28.47 74.82-30.11 76.48-31.76 78.49-32.93 80.49-34.11 82.8-34.75 85.1-35.4 87.59-35.4L87.59-35.4Q90.84-35.4 93.84-34.29 96.85-33.18 99.29-31.1L99.29-31.1 95.62-25Q94.04-26.61 91.96-27.53 89.89-28.44 87.59-28.44L87.59-28.44Q85.3-28.44 83.28-27.56 81.27-26.68 79.76-25.18 78.24-23.68 77.36-21.67 76.48-19.65 76.48-17.36L76.48-17.36Q76.48-15.04 77.36-13.01 78.24-10.99 79.76-9.47 81.27-7.96 83.28-7.08 85.3-6.2 87.59-6.2L87.59-6.2Q88.91-6.2 90.16-6.52 91.4-6.84 92.52-7.4L92.52-7.4 92.52-17.36 99.29-17.36ZM137.22-16.6L137.22 0 130.58 0 130.58-16.6Q130.58-17.29 130.33-17.9 130.07-18.51 129.61-18.97 129.14-19.43 128.53-19.69 127.92-19.95 127.24-19.95L127.24-19.95Q126.56-19.95 125.96-19.69 125.36-19.43 124.91-18.97 124.46-18.51 124.2-17.9 123.94-17.29 123.94-16.6L123.94-16.6 123.94 0 117.28 0 117.28-16.6Q117.28-17.29 117.02-17.9 116.76-18.51 116.3-18.97 115.84-19.43 115.23-19.69 114.62-19.95 113.93-19.95L113.93-19.95Q113.25-19.95 112.65-19.69 112.05-19.43 111.6-18.97 111.15-18.51 110.89-17.9 110.64-17.29 110.64-16.6L110.64-16.6 110.64 0 103.97 0 103.97-26.15 105.58-26.15 107.39-24.15Q108.78-25.32 110.45-25.96 112.13-26.61 113.93-26.61L113.93-26.61Q115.76-26.61 117.51-25.93 119.26-25.24 120.57-23.56L120.57-23.56Q121.18-24.39 121.97-24.98 122.75-25.56 123.61-25.93 124.48-26.29 125.41-26.45 126.34-26.61 127.24-26.61L127.24-26.61Q129.31-26.61 131.13-25.83 132.95-25.05 134.31-23.69 135.66-22.34 136.44-20.51 137.22-18.68 137.22-16.6L137.22-16.6ZM167.4-26.1L167.4 0 165.79 0 163.2-3.59Q162.25-2.73 161.18-1.99 160.12-1.25 158.95-0.7 157.78-0.15 156.55 0.17 155.31 0.49 154.04 0.49L154.04 0.49Q151.28 0.49 148.85-0.44 146.43-1.37 144.61-3.14 142.79-4.91 141.74-7.47 140.69-10.03 140.69-13.31L140.69-13.31Q140.69-16.36 141.74-18.91 142.79-21.46 144.61-23.29 146.43-25.12 148.85-26.14 151.28-27.15 154.04-27.15L154.04-27.15Q155.31-27.15 156.56-26.83 157.8-26.51 158.97-25.95 160.15-25.39 161.21-24.63 162.27-23.88 163.2-23L163.2-23 165.79-26.1 167.4-26.1ZM160.68-13.31L160.68-13.31Q160.68-14.67 160.16-15.95 159.63-17.24 158.73-18.23 157.83-19.21 156.62-19.81 155.41-20.41 154.04-20.41L154.04-20.41Q152.68-20.41 151.47-19.95 150.26-19.48 149.37-18.58 148.48-17.68 147.96-16.35 147.45-15.01 147.45-13.31L147.45-13.31Q147.45-11.6 147.96-10.27 148.48-8.94 149.37-8.03 150.26-7.13 151.47-6.67 152.68-6.2 154.04-6.2L154.04-6.2Q155.41-6.2 156.62-6.8 157.83-7.4 158.73-8.39 159.63-9.38 160.16-10.66 160.68-11.94 160.68-13.31ZM186.97-13.4L196.55 0 188.39 0 183.19-8.01 177.94 0 169.79 0 179.33-13.4 169.79-26.29 177.94-26.29 183.19-18.8 188.39-26.29 196.55-26.29 186.97-13.4Z" fill="#ffffff" data-fill-palette-color="primary"></path></g></svg></g></svg></g></svg></g></svg></g></svg></g><defs></defs></svg><rect width="395.52" height="74.07247344461305" fill="none" stroke="none" visibility="hidden"></rect></g></svg></g></svg>